<svg width="12" height="11" viewBox="0 0 12 11" fill="none" xmlns="http://www.w3.org/2000/svg">
<path d="M3.59675 1.2935L9.898 6.231L10.1225 6.03L3.76075 1.1465L3.59675 1.2935ZM5.65025 3.92175L3.07125 1.76375C3.07125 1.76375 2.17375 2.33675 1.08675 3.5935L3.37475 5.959L5.65025 3.92175ZM0 4.769L4.867 10.7343L5.76575 9.93L0.57675 3.99725C0.57675 3.99725 0.1245 4.242 0 4.769ZM5.4535 5.111L8.28075 7.6785L9.179 6.87425L6.23525 4.41125L5.4535 5.111ZM3.89 6.51075L6.48425 9.28675L7.38225 8.48275L4.67175 5.811L3.89 6.51075ZM5.56275 0.443L5.1815 1.5135L5.4205 1.6875L6.63425 0.60075L6.39675 0.45125L5.5605 1.2L5.93025 0.1565L5.68225 0L4.5255 1.0355L4.73275 1.18625L5.56275 0.443ZM6.6015 2.54875L6.833 2.341L6.12675 1.839L6.447 1.5525L7.07425 1.982L7.297 1.78225L6.66275 1.35875L6.92725 1.12225L7.6295 1.5765L7.8575 1.37275L6.8865 0.75975L5.657 1.8605L6.6015 2.54875ZM7.35375 3.09675L8.3135 2.5155L8.62775 2.3165L8.41925 2.586L7.80175 3.42375L8.1 3.641L9.947 2.69125L9.5965 2.47L8.58375 3.0495L8.32525 3.206L8.49875 2.97775L9.099 2.156L8.762 1.9435L7.82575 2.52375L7.577 2.681L7.74825 2.46325L8.31525 1.6615L7.99925 1.462L7.084 2.90025L7.35375 3.09675ZM10.8253 3.18025C10.598 3.0375 10.3857 2.96925 10.1873 2.97325C9.99058 2.97758 9.82867 3.03675 9.7015 3.15075C9.56167 3.27575 9.51475 3.4055 9.56075 3.54C9.58742 3.6205 9.674 3.73783 9.8205 3.892L9.97225 4.0515C10.0627 4.14567 10.1208 4.22233 10.1465 4.2815C10.1715 4.3415 10.1593 4.3935 10.11 4.4375C10.0257 4.5125 9.91608 4.527 9.78125 4.481C9.6974 4.44936 9.61845 4.40601 9.54675 4.35225C9.40425 4.25075 9.335 4.153 9.33675 4.05875C9.33775 4.00725 9.36592 3.94825 9.42125 3.88175L9.0935 3.65325C8.9455 3.78525 8.88992 3.93308 8.92675 4.09675C8.964 4.262 9.09075 4.425 9.31075 4.5855C9.53 4.74625 9.74825 4.83225 9.96275 4.84175C10.1795 4.851 10.358 4.794 10.4955 4.67025C10.6305 4.54958 10.6787 4.42033 10.64 4.2825C10.6155 4.19425 10.5468 4.0915 10.4358 3.9745L10.187 3.712C10.0925 3.61317 10.0357 3.54417 10.0165 3.505C9.9865 3.44533 9.99733 3.3925 10.049 3.3465C10.1052 3.29617 10.1772 3.27542 10.2653 3.28425C10.3544 3.29308 10.4476 3.32875 10.5448 3.39125C10.6333 3.44825 10.695 3.50725 10.73 3.56825C10.7835 3.66042 10.7689 3.74875 10.6863 3.83325L11.0555 4.0765C11.2088 3.92833 11.2569 3.77183 11.1997 3.607C11.1436 3.44367 11.0188 3.30142 10.8253 3.18025Z" fill="white"/>
</svg>
